<svg width="40" height="40" viewBox="0 0 40 40" fill="none" xmlns="http://www.w3.org/2000/svg">
<rect x="0.5" y="0.5" width="39" height="39" rx="7.5" fill="white"/>
<rect x="0.5" y="0.5" width="39" height="39" rx="7.5" stroke="#E5E5E5"/>
<path d="M28.3333 19.9998C28.3333 15.3998 24.6 11.6665 20 11.6665C15.4 11.6665 11.6667 15.3998 11.6667 19.9998C11.6667 24.0332 14.5333 27.3915 18.3333 28.1665V22.4998H16.6667V19.9998H18.3333V17.9165C18.3333 16.3082 19.6417 14.9998 21.25 14.9998H23.3333V17.4998H21.6667C21.2083 17.4998 20.8333 17.8748 20.8333 18.3332V19.9998H23.3333V22.4998H20.8333V28.2915C25.0417 27.8748 28.3333 24.3248 28.3333 19.9998Z" fill="#737373"/>
</svg>
