<svg width="25" height="24" viewBox="0 0 25 24" fill="none" xmlns="http://www.w3.org/2000/svg">
<path d="M19.1364 7.21293C19.3701 5.68888 19.1364 4.67285 18.3182 3.73497C17.4222 2.67986 15.7859 2.25 13.6822 2.25H7.64363C7.21509 2.25 6.86446 2.56263 6.78654 2.99248L4.25425 19.0145C4.21529 19.3272 4.44904 19.6007 4.76071 19.6007H8.50072L8.22801 21.242C8.18905 21.5155 8.38384 21.75 8.69551 21.75H11.8511C12.2407 21.75 12.5524 21.4765 12.5913 21.1247L13.2536 16.9825C13.2926 16.6308 13.6432 16.3572 13.9939 16.3572H14.4614C17.5001 16.3572 19.9155 15.1067 20.6168 11.5115C20.8895 10.0266 20.7726 8.73697 19.9934 7.87725C19.7597 7.60371 19.487 7.40832 19.1364 7.21293" fill="#009CDE"/>
<path d="M19.1364 7.21293C19.3701 5.68888 19.1364 4.67285 18.3182 3.73497C17.4222 2.67986 15.7859 2.25 13.6822 2.25H7.64363C7.21509 2.25 6.86446 2.56263 6.78654 2.99248L4.25425 19.0145C4.21529 19.3272 4.44904 19.6007 4.76071 19.6007H8.50071L9.39676 13.8171C9.47468 13.3873 9.8253 13.0746 10.2538 13.0746H12.0459C15.5522 13.0746 18.2793 11.6678 19.0584 7.52555C19.0974 7.44739 19.0974 7.33016 19.1364 7.21293Z" fill="#012169"/>
<path d="M10.4486 7.252C10.4876 6.97846 10.8382 6.62675 11.1888 6.62675H15.9418C16.4872 6.62675 17.0326 6.66583 17.5001 6.74399C17.9286 6.82214 18.7078 7.01753 19.0974 7.252C19.3312 5.72796 19.0974 4.71192 18.2793 3.77405C17.4222 2.67986 15.7859 2.25 13.6822 2.25H7.64363C7.21509 2.25 6.86446 2.56263 6.78654 2.99248L4.25425 19.0145C4.21529 19.3272 4.44904 19.6007 4.76071 19.6007H8.50071L10.4486 7.252V7.252Z" fill="#003087"/>
</svg>
