<svg width="24" height="24" viewBox="0 0 24 24" fill="none" xmlns="http://www.w3.org/2000/svg">
<path d="M19.5 3H4.5C4.10233 3.00052 3.7211 3.15872 3.43991 3.43991C3.15872 3.7211 3.00052 4.10233 3 4.5V9.99976C3 18.3867 10.1082 21.1677 11.5342 21.6401C11.8363 21.7427 12.1637 21.7427 12.4658 21.6401C13.8911 21.1677 21 18.3875 21 9.99976V4.5C20.9995 4.10233 20.8413 3.7211 20.5601 3.43991C20.2789 3.15872 19.8977 3.00052 19.5 3ZM16.6428 9.54272L11.1423 14.7927C11.0028 14.9258 10.8173 15 10.6245 15C10.4317 15 10.2463 14.9258 10.1067 14.7927L7.35718 12.1677C7.2858 12.0997 7.22853 12.0184 7.18862 11.9282C7.14871 11.8381 7.12696 11.741 7.1246 11.6425C7.12224 11.5439 7.13933 11.4459 7.17488 11.354C7.21043 11.262 7.26375 11.178 7.33179 11.1067C7.39983 11.0354 7.48126 10.9782 7.57142 10.9384C7.66158 10.8985 7.7587 10.8769 7.85724 10.8746C7.95578 10.8723 8.0538 10.8895 8.1457 10.9251C8.2376 10.9608 8.32157 11.0142 8.39282 11.0823L10.6245 13.2129L15.6072 8.45728C15.6784 8.38917 15.7624 8.33578 15.8543 8.30014C15.9462 8.26451 16.0442 8.24734 16.1428 8.24961C16.2413 8.25188 16.3384 8.27354 16.4286 8.31337C16.5187 8.35319 16.6002 8.4104 16.6682 8.48171C16.7363 8.55302 16.7896 8.63705 16.8251 8.72898C16.8607 8.82091 16.8778 8.91894 16.8754 9.01748C16.873 9.11602 16.8513 9.21312 16.8114 9.30325C16.7715 9.39337 16.7142 9.47475 16.6428 9.54272H16.6428Z" fill="#737373"/>
</svg>
