<svg width="40" height="40" viewBox="0 0 40 40" fill="none" xmlns="http://www.w3.org/2000/svg">
<rect x="0.5" y="0.5" width="39" height="39" rx="7.5" fill="white"/>
<rect x="0.5" y="0.5" width="39" height="39" rx="7.5" stroke="#E5E5E5"/>
<path d="M28.125 16.25V19.375C28.125 19.5408 28.0592 19.6997 27.9419 19.8169C27.8247 19.9342 27.6658 20 27.5 20C26.1944 20.003 24.9075 19.6891 23.75 19.0852V22.1875C23.75 23.7622 23.1244 25.2724 22.0109 26.3859C20.8974 27.4994 19.3872 28.125 17.8125 28.125C16.2378 28.125 14.7276 27.4994 13.6141 26.3859C12.5006 25.2724 11.875 23.7622 11.875 22.1875C11.875 19.3047 13.9773 16.7563 16.7656 16.2594C16.8556 16.2434 16.9479 16.2473 17.0362 16.2709C17.1245 16.2944 17.2065 16.3371 17.2765 16.3958C17.3465 16.4545 17.4028 16.5278 17.4414 16.6106C17.48 16.6934 17.5 16.7836 17.5 16.875V20.2102C17.5 20.3284 17.4665 20.4443 17.4033 20.5443C17.3401 20.6443 17.2498 20.7243 17.143 20.775C16.8903 20.8948 16.6745 21.0802 16.5179 21.3119C16.3614 21.5435 16.2698 21.8129 16.2529 22.092C16.2359 22.3711 16.2942 22.6496 16.4215 22.8985C16.5489 23.1474 16.7407 23.3576 16.977 23.5071C17.2132 23.6566 17.4853 23.74 17.7647 23.7486C18.0442 23.7571 18.3208 23.6905 18.5658 23.5557C18.8108 23.4209 19.0151 23.2229 19.1574 22.9822C19.2997 22.7415 19.3749 22.4671 19.375 22.1875V11.875C19.375 11.7092 19.4408 11.5503 19.5581 11.4331C19.6753 11.3158 19.8342 11.25 20 11.25H23.125C23.2908 11.25 23.4497 11.3158 23.5669 11.4331C23.6842 11.5503 23.75 11.7092 23.75 11.875C23.751 12.8692 24.1465 13.8225 24.8495 14.5255C25.5525 15.2285 26.5058 15.624 27.5 15.625C27.6658 15.625 27.8247 15.6908 27.9419 15.8081C28.0592 15.9253 28.125 16.0842 28.125 16.25Z" fill="#737373"/>
</svg>
