<svg width="56" height="56" viewBox="0 0 56 56" fill="none" xmlns="http://www.w3.org/2000/svg">
<mask id="path-1-inside-1_1_1629" fill="white">
<path d="M54.2493 26.2371C54.2491 26.2187 54.2472 26.2003 54.2465 26.1819C54.2446 26.1334 54.2416 26.0851 54.2358 26.0375C54.2333 26.0169 54.2296 25.9964 54.2263 25.9758C54.2189 25.9285 54.2098 25.8819 54.1986 25.8359C54.1941 25.8174 54.1895 25.799 54.1844 25.7806C54.1697 25.7279 54.1527 25.6763 54.1332 25.6257C54.13 25.6172 54.1281 25.6085 54.1248 25.6L54.1139 25.573L54.1116 25.567L51.0648 17.9501C50.8069 17.2993 50.359 16.7413 49.7793 16.3489C49.1996 15.9564 48.5152 15.7477 47.8152 15.75H40.2499V14C40.2499 13.5359 40.0655 13.0908 39.7373 12.7626C39.4092 12.4344 38.9641 12.25 38.4999 12.25H5.24994C4.32201 12.2511 3.43238 12.6202 2.77624 13.2763C2.12009 13.9324 1.751 14.8221 1.74994 15.75V40.25C1.751 41.1779 2.12009 42.0676 2.77624 42.7237C3.43238 43.3798 4.32201 43.7489 5.24994 43.75H8.09647C8.48462 45.2526 9.36105 46.5837 10.588 47.534C11.815 48.4843 13.323 49 14.8749 49C16.4269 49 17.9349 48.4843 19.1618 47.534C20.3888 46.5837 21.2653 45.2526 21.6534 43.75H34.3465C34.7346 45.2526 35.611 46.5837 36.838 47.534C38.065 48.4843 39.573 49 41.1249 49C42.6769 49 44.1849 48.4843 45.4118 47.534C46.6388 46.5837 47.5153 45.2526 47.9034 43.75H50.7499C51.6779 43.7489 52.5675 43.3798 53.2236 42.7237C53.8798 42.0676 54.2489 41.1779 54.2499 40.25V26.25C54.2499 26.2456 54.2493 26.2415 54.2493 26.2371ZM40.2499 19.25H47.8152L49.9151 24.5H40.2499V19.25ZM5.24994 15.75H36.7499V29.75H5.24994V15.75ZM14.8749 45.5C14.1827 45.5 13.506 45.2947 12.9304 44.9101C12.3549 44.5256 11.9063 43.9789 11.6414 43.3394C11.3765 42.6998 11.3071 41.9961 11.4422 41.3172C11.5772 40.6382 11.9106 40.0146 12.4001 39.5251C12.8896 39.0356 13.5132 38.7023 14.1921 38.5672C14.8711 38.4322 15.5748 38.5015 16.2143 38.7664C16.8539 39.0313 17.4005 39.4799 17.7851 40.0555C18.1697 40.6311 18.3749 41.3078 18.3749 42C18.3739 42.9279 18.0048 43.8176 17.3486 44.4737C16.6925 45.1298 15.8029 45.4989 14.8749 45.5ZM41.1249 45.5C40.4327 45.5 39.756 45.2947 39.1804 44.9101C38.6049 44.5256 38.1563 43.9789 37.8914 43.3394C37.6265 42.6998 37.5571 41.9961 37.6922 41.3172C37.8272 40.6382 38.1606 40.0146 38.6501 39.5251C39.1395 39.0356 39.7632 38.7023 40.4421 38.5672C41.1211 38.4322 41.8248 38.5015 42.4643 38.7664C43.1039 39.0313 43.6505 39.4799 44.0351 40.0555C44.4197 40.6311 44.6249 41.3078 44.6249 42C44.6239 42.9279 44.2548 43.8176 43.5986 44.4737C42.9425 45.1298 42.0529 45.4989 41.1249 45.5Z"/>
</mask>
<path d="M54.2493 26.2371C54.2491 26.2187 54.2472 26.2003 54.2465 26.1819C54.2446 26.1334 54.2416 26.0851 54.2358 26.0375C54.2333 26.0169 54.2296 25.9964 54.2263 25.9758C54.2189 25.9285 54.2098 25.8819 54.1986 25.8359C54.1941 25.8174 54.1895 25.799 54.1844 25.7806C54.1697 25.7279 54.1527 25.6763 54.1332 25.6257C54.13 25.6172 54.1281 25.6085 54.1248 25.6L54.1139 25.573L54.1116 25.567L51.0648 17.9501C50.8069 17.2993 50.359 16.7413 49.7793 16.3489C49.1996 15.9564 48.5152 15.7477 47.8152 15.75H40.2499V14C40.2499 13.5359 40.0655 13.0908 39.7373 12.7626C39.4092 12.4344 38.9641 12.25 38.4999 12.25H5.24994C4.32201 12.2511 3.43238 12.6202 2.77624 13.2763C2.12009 13.9324 1.751 14.8221 1.74994 15.75V40.25C1.751 41.1779 2.12009 42.0676 2.77624 42.7237C3.43238 43.3798 4.32201 43.7489 5.24994 43.75H8.09647C8.48462 45.2526 9.36105 46.5837 10.588 47.534C11.815 48.4843 13.323 49 14.8749 49C16.4269 49 17.9349 48.4843 19.1618 47.534C20.3888 46.5837 21.2653 45.2526 21.6534 43.75H34.3465C34.7346 45.2526 35.611 46.5837 36.838 47.534C38.065 48.4843 39.573 49 41.1249 49C42.6769 49 44.1849 48.4843 45.4118 47.534C46.6388 46.5837 47.5153 45.2526 47.9034 43.75H50.7499C51.6779 43.7489 52.5675 43.3798 53.2236 42.7237C53.8798 42.0676 54.2489 41.1779 54.2499 40.25V26.25C54.2499 26.2456 54.2493 26.2415 54.2493 26.2371ZM40.2499 19.25H47.8152L49.9151 24.5H40.2499V19.25ZM5.24994 15.75H36.7499V29.75H5.24994V15.75ZM14.8749 45.5C14.1827 45.5 13.506 45.2947 12.9304 44.9101C12.3549 44.5256 11.9063 43.9789 11.6414 43.3394C11.3765 42.6998 11.3071 41.9961 11.4422 41.3172C11.5772 40.6382 11.9106 40.0146 12.4001 39.5251C12.8896 39.0356 13.5132 38.7023 14.1921 38.5672C14.8711 38.4322 15.5748 38.5015 16.2143 38.7664C16.8539 39.0313 17.4005 39.4799 17.7851 40.0555C18.1697 40.6311 18.3749 41.3078 18.3749 42C18.3739 42.9279 18.0048 43.8176 17.3486 44.4737C16.6925 45.1298 15.8029 45.4989 14.8749 45.5ZM41.1249 45.5C40.4327 45.5 39.756 45.2947 39.1804 44.9101C38.6049 44.5256 38.1563 43.9789 37.8914 43.3394C37.6265 42.6998 37.5571 41.9961 37.6922 41.3172C37.8272 40.6382 38.1606 40.0146 38.6501 39.5251C39.1395 39.0356 39.7632 38.7023 40.4421 38.5672C41.1211 38.4322 41.8248 38.5015 42.4643 38.7664C43.1039 39.0313 43.6505 39.4799 44.0351 40.0555C44.4197 40.6311 44.6249 41.3078 44.6249 42C44.6239 42.9279 44.2548 43.8176 43.5986 44.4737C42.9425 45.1298 42.0529 45.4989 41.1249 45.5Z" fill="white"/>
<path d="M54.2493 26.2371H58.2493V26.2197L58.2491 26.2023L54.2493 26.2371ZM54.2465 26.1819L58.2437 26.0311L58.2436 26.0281L54.2465 26.1819ZM54.2358 26.0375L58.2067 25.5558L58.2064 25.5539L54.2358 26.0375ZM54.2263 25.9758L50.2747 26.5957L50.2758 26.603L50.277 26.6103L54.2263 25.9758ZM54.1986 25.8359L50.3115 26.7797L50.3122 26.7827L54.1986 25.8359ZM54.1844 25.7806L58.0387 24.7111L58.0383 24.7095L54.1844 25.7806ZM54.1332 25.6257L57.8671 24.1911L57.8646 24.1846L54.1332 25.6257ZM54.1248 25.6L57.8403 24.1185L57.8372 24.1108L54.1248 25.6ZM54.1139 25.573L50.391 27.036L50.3962 27.0492L50.4015 27.0623L54.1139 25.573ZM54.1116 25.567L57.8344 24.1041L57.83 24.0928L57.8255 24.0815L54.1116 25.567ZM51.0648 17.9501L47.3461 19.4236L47.3509 19.4356L51.0648 17.9501ZM47.8152 15.75V19.75L47.8281 19.75L47.8152 15.75ZM40.2499 15.75H36.2499V19.75H40.2499V15.75ZM40.2499 14H44.2499V13.9998L40.2499 14ZM38.4999 12.25L38.5001 8.25H38.4999V12.25ZM5.24994 12.25V8.25L5.24536 8.25L5.24994 12.25ZM1.74994 15.75L-2.25006 15.7454V15.75H1.74994ZM1.74994 40.25H-2.25006L-2.25006 40.2546L1.74994 40.25ZM5.24994 43.75L5.24536 47.75H5.24994V43.75ZM8.09647 43.75L11.9693 42.7496L11.1945 39.75H8.09647V43.75ZM21.6534 43.75V39.75H18.5554L17.7805 42.7496L21.6534 43.75ZM34.3465 43.75L38.2193 42.7496L37.4445 39.75H34.3465V43.75ZM41.1249 49V45V49ZM47.9034 43.75V39.75H44.8054L44.0305 42.7496L47.9034 43.75ZM50.7499 43.75V47.75L50.7545 47.75L50.7499 43.75ZM54.2499 40.25L58.2499 40.2546V40.25H54.2499ZM54.2499 26.25L50.2499 26.248V26.25H54.2499ZM40.2499 19.25V15.25H36.2499V19.25H40.2499ZM47.8152 19.25L51.5291 17.7645L50.5234 15.25H47.8152V19.25ZM49.9151 24.5V28.5H55.8231L53.629 23.0145L49.9151 24.5ZM40.2499 24.5H36.2499V28.5H40.2499V24.5ZM5.24994 15.75V11.75H1.24994V15.75H5.24994ZM36.7499 15.75H40.7499V11.75H36.7499V15.75ZM36.7499 29.75V33.75H40.7499V29.75H36.7499ZM5.24994 29.75H1.24994V33.75H5.24994V29.75ZM14.8749 45.5V49.5L14.8795 49.5L14.8749 45.5ZM18.3749 42L22.3749 42.0046V42H18.3749ZM41.1249 45.5V49.5L41.1295 49.5L41.1249 45.5ZM44.6249 42L48.6249 42.0046V42H44.6249ZM58.2491 26.2023C58.2486 26.1346 58.2464 26.0778 58.2446 26.0374C58.2427 25.9981 58.2407 25.9664 58.2399 25.9542C58.2397 25.9508 58.2395 25.9478 58.2394 25.9461C58.2392 25.9428 58.2393 25.9446 58.2392 25.943C58.2392 25.9421 58.2394 25.9462 58.2398 25.952C58.2405 25.9633 58.2422 25.9926 58.2437 26.0311L50.2494 26.3328C50.2512 26.3804 50.2534 26.4189 50.2547 26.4394C50.2553 26.4499 50.2559 26.4586 50.2561 26.4623C50.2565 26.4685 50.2563 26.4654 50.2563 26.4648C50.2561 26.4618 50.2546 26.4393 50.2532 26.4091C50.2518 26.3779 50.25 26.3303 50.2494 26.2718L58.2491 26.2023ZM58.2436 26.0281C58.2393 25.9163 58.2303 25.7502 58.2067 25.5558L50.2649 26.5193C50.2528 26.4199 50.25 26.3504 50.2495 26.3358L58.2436 26.0281ZM58.2064 25.5539C58.1968 25.4748 58.1869 25.4108 58.1817 25.3783C58.1791 25.3619 58.1767 25.3476 58.1759 25.3426C58.1746 25.3347 58.1751 25.3377 58.1757 25.3413L50.277 26.6103C50.2792 26.6242 50.2814 26.6375 50.2818 26.6399C50.2827 26.6452 50.282 26.6412 50.281 26.635C50.2791 26.6231 50.2723 26.5797 50.2651 26.5212L58.2064 25.5539ZM58.178 25.3559C58.155 25.2091 58.1248 25.0529 58.0849 24.8891L50.3122 26.7827C50.2948 26.711 50.2828 26.6479 50.2747 26.5957L58.178 25.3559ZM58.0856 24.8921C58.0777 24.8594 58.0612 24.7919 58.0387 24.7111L50.33 26.85C50.3235 26.8268 50.3188 26.8084 50.3158 26.7968C50.3129 26.7856 50.3112 26.7785 50.3115 26.7797L58.0856 24.8921ZM58.0383 24.7095C57.9897 24.5348 57.9327 24.3618 57.8671 24.1911L50.3994 27.0603C50.3726 26.9907 50.3497 26.921 50.3304 26.8516L58.0383 24.7095ZM57.8646 24.1846C57.9006 24.2777 57.9258 24.3537 57.94 24.3981C57.9473 24.4206 57.9528 24.4386 57.9557 24.4482C57.9582 24.4562 57.9606 24.4644 57.9591 24.4592C57.9586 24.4576 57.955 24.4457 57.9505 24.431C57.9457 24.4156 57.9384 24.3922 57.9292 24.3639C57.9109 24.3082 57.8815 24.2219 57.8403 24.1185L50.4093 27.0816C50.3892 27.0314 50.3724 26.9861 50.3586 26.9474C50.3448 26.9087 50.3335 26.8753 50.3249 26.8489C50.3164 26.8228 50.3097 26.8016 50.3056 26.7883C50.3036 26.7815 50.3019 26.776 50.3008 26.7725C50.2998 26.7691 50.299 26.7666 50.299 26.7665C50.299 26.7664 50.299 26.7664 50.299 26.7665C50.299 26.7666 50.2991 26.7669 50.2992 26.7672C50.2994 26.7677 50.2997 26.7689 50.3002 26.7703C50.301 26.7731 50.3025 26.7779 50.3043 26.784C50.3079 26.7957 50.3141 26.8158 50.322 26.8405C50.33 26.8655 50.3406 26.8978 50.3537 26.9354C50.3667 26.973 50.3828 27.0173 50.4019 27.0668L57.8646 24.1846ZM57.8372 24.1108L57.8263 24.0837L50.4015 27.0623L50.4123 27.0893L57.8372 24.1108ZM57.8368 24.1101L57.8344 24.1041L50.3887 27.03L50.391 27.036L57.8368 24.1101ZM57.8255 24.0815L54.7787 16.4645L47.3509 19.4356L50.3977 27.0526L57.8255 24.0815ZM54.7835 16.4766C54.2295 15.0785 53.2671 13.8797 52.0218 13.0366L47.5368 19.6611C47.4508 19.6029 47.3844 19.5202 47.3461 19.4236L54.7835 16.4766ZM52.0218 13.0366C50.7765 12.1935 49.3061 11.7451 47.8022 11.75L47.8281 19.75C47.7243 19.7503 47.6228 19.7194 47.5368 19.6611L52.0218 13.0366ZM47.8152 11.75H40.2499V19.75H47.8152V11.75ZM44.2499 15.75V14H36.2499V15.75H44.2499ZM44.2499 13.9998C44.2499 12.4749 43.6441 11.0124 42.5658 9.93416L36.9089 15.591C36.487 15.1691 36.25 14.5969 36.2499 14.0002L44.2499 13.9998ZM42.5658 9.93416C41.4875 8.85588 40.0251 8.25007 38.5001 8.25L38.4997 16.25C37.9031 16.25 37.3308 16.0129 36.9089 15.591L42.5658 9.93416ZM38.4999 8.25H5.24994V16.25H38.4999V8.25ZM5.24536 8.25C3.25815 8.25228 1.35298 9.0427 -0.0521898 10.4479L5.60466 16.1047C5.51179 16.1976 5.38586 16.2498 5.25451 16.25L5.24536 8.25ZM-0.0521898 10.4479C-1.45736 11.853 -2.24779 13.7582 -2.25006 15.7454L5.74994 15.7546C5.74979 15.8859 5.69754 16.0118 5.60466 16.1047L-0.0521898 10.4479ZM-2.25006 15.75V40.25H5.74994V15.75H-2.25006ZM-2.25006 40.2546C-2.24779 42.2418 -1.45736 44.147 -0.0521898 45.5521L5.60466 39.8953C5.69754 39.9881 5.74979 40.1141 5.74994 40.2454L-2.25006 40.2546ZM-0.0521898 45.5521C1.35298 46.9573 3.25815 47.7477 5.24536 47.75L5.25451 39.75C5.38586 39.7501 5.51179 39.8024 5.60466 39.8953L-0.0521898 45.5521ZM5.24994 47.75H8.09647V39.75H5.24994V47.75ZM4.22359 44.7504C4.83351 47.1116 6.2107 49.2031 8.13872 50.6964L13.0374 44.3716C12.5114 43.9642 12.1357 43.3937 11.9693 42.7496L4.22359 44.7504ZM8.13872 50.6964C10.0667 52.1897 12.4363 53 14.8749 53V45C14.2097 45 13.5633 44.7789 13.0374 44.3716L8.13872 50.6964ZM14.8749 53C17.3136 53 19.6831 52.1897 21.6112 50.6964L16.7125 44.3716C16.1866 44.7789 15.5402 45 14.8749 45V53ZM21.6112 50.6964C23.5392 49.2031 24.9164 47.1116 25.5263 44.7504L17.7805 42.7496C17.6142 43.3937 17.2385 43.9642 16.7125 44.3716L21.6112 50.6964ZM21.6534 47.75H34.3465V39.75H21.6534V47.75ZM30.4736 44.7504C31.0835 47.1116 32.4607 49.2031 34.3887 50.6964L39.2873 44.3716C38.7614 43.9642 38.3857 43.3937 38.2193 42.7496L30.4736 44.7504ZM34.3887 50.6964C36.3167 52.1897 38.6863 53 41.1249 53V45C40.4597 45 39.8133 44.7789 39.2873 44.3716L34.3887 50.6964ZM41.1249 53C43.5636 53 45.9331 52.1897 47.8612 50.6964L42.9625 44.3716C42.4366 44.7789 41.7902 45 41.1249 45V53ZM47.8612 50.6964C49.7892 49.2031 51.1664 47.1116 51.7763 44.7504L44.0305 42.7496C43.8641 43.3937 43.4885 43.9642 42.9625 44.3716L47.8612 50.6964ZM47.9034 47.75H50.7499V39.75H47.9034V47.75ZM50.7545 47.75C52.7417 47.7477 54.6469 46.9573 56.0521 45.5521L50.3952 39.8953C50.4881 39.8024 50.614 39.7501 50.7454 39.75L50.7545 47.75ZM56.0521 45.5521C57.4572 44.147 58.2477 42.2418 58.2499 40.2546L50.2499 40.2454C50.2501 40.1141 50.3023 39.9881 50.3952 39.8953L56.0521 45.5521ZM58.2499 40.25V26.25H50.2499V40.25H58.2499ZM58.2499 26.252C58.25 26.2027 58.2491 26.1585 58.2479 26.1207C58.2467 26.083 58.2451 26.0505 58.2437 26.025C58.2423 25.9997 58.2409 25.9791 58.24 25.9663C58.2395 25.9598 58.2392 25.9545 58.2389 25.9512C58.2388 25.9495 58.2387 25.948 58.2386 25.9471C58.2386 25.9463 58.2385 25.9455 58.2385 25.9455C58.2384 25.9448 58.2386 25.9469 58.2388 25.9493C58.239 25.9521 58.2393 25.9568 58.2397 25.9627C58.2405 25.9743 58.2419 25.9936 58.2432 26.0177C58.2445 26.042 58.2461 26.0732 58.2472 26.1096C58.2484 26.1462 58.2493 26.189 58.2493 26.2371H50.2493C50.2493 26.2862 50.2502 26.3301 50.2514 26.3678C50.2526 26.4053 50.2542 26.4376 50.2556 26.463C50.257 26.4881 50.2584 26.5085 50.2593 26.5212C50.2597 26.5276 50.2601 26.5329 50.2603 26.5361C50.2605 26.5378 50.2606 26.5392 50.2606 26.54C50.2607 26.5409 50.2607 26.5416 50.2607 26.5416C50.2608 26.5422 50.2606 26.5401 50.2604 26.5375C50.2602 26.5347 50.2599 26.5299 50.2595 26.5239C50.2586 26.5122 50.2573 26.4927 50.256 26.4685C50.2546 26.444 50.2531 26.4126 50.2519 26.376C50.2508 26.3393 50.2499 26.2962 50.2499 26.248L58.2499 26.252ZM40.2499 23.25H47.8152V15.25H40.2499V23.25ZM44.1013 20.7355L46.2012 25.9855L53.629 23.0145L51.5291 17.7645L44.1013 20.7355ZM49.9151 20.5H40.2499V28.5H49.9151V20.5ZM44.2499 24.5V19.25H36.2499V24.5H44.2499ZM5.24994 19.75H36.7499V11.75H5.24994V19.75ZM32.7499 15.75V29.75H40.7499V15.75H32.7499ZM36.7499 25.75H5.24994V33.75H36.7499V25.75ZM9.24994 29.75V15.75H1.24994V29.75H9.24994ZM14.8749 41.5C14.9738 41.5 15.0705 41.5293 15.1527 41.5843L10.7082 48.236C11.9415 49.0601 13.3916 49.5 14.8749 49.5V41.5ZM15.1527 41.5843C15.2349 41.6392 15.299 41.7173 15.3369 41.8087L7.94584 44.8701C8.5135 46.2406 9.4748 47.4119 10.7082 48.236L15.1527 41.5843ZM15.3369 41.8087C15.3747 41.9 15.3846 42.0006 15.3653 42.0975L7.51905 40.5368C7.22966 41.9917 7.37819 43.4997 7.94584 44.8701L15.3369 41.8087ZM15.3653 42.0975C15.346 42.1945 15.2984 42.2836 15.2285 42.3535L9.57164 36.6967C8.52275 37.7456 7.80844 39.082 7.51905 40.5368L15.3653 42.0975ZM15.2285 42.3535C15.1586 42.4235 15.0695 42.4711 14.9725 42.4904L13.4118 34.6441C11.9569 34.9335 10.6205 35.6478 9.57164 36.6967L15.2285 42.3535ZM14.9725 42.4904C14.8755 42.5097 14.775 42.4998 14.6836 42.4619L17.7451 35.0709C16.3746 34.5032 14.8666 34.3547 13.4118 34.6441L14.9725 42.4904ZM14.6836 42.4619C14.5922 42.4241 14.5141 42.36 14.4592 42.2778L21.111 37.8332C20.2868 36.5998 19.1155 35.6386 17.7451 35.0709L14.6836 42.4619ZM14.4592 42.2778C14.4043 42.1956 14.3749 42.0989 14.3749 42H22.3749C22.3749 40.5166 21.9351 39.0666 21.111 37.8332L14.4592 42.2778ZM14.3749 41.9954C14.3751 41.8641 14.4273 41.7381 14.5202 41.6453L20.1771 47.3021C21.5822 45.897 22.3727 43.9918 22.3749 42.0046L14.3749 41.9954ZM14.5202 41.6453C14.6131 41.5524 14.739 41.5001 14.8704 41.5L14.8795 49.5C16.8667 49.4977 18.7719 48.7073 20.1771 47.3021L14.5202 41.6453ZM41.1249 41.5C41.2238 41.5 41.3205 41.5293 41.4027 41.5843L36.9582 48.236C38.1915 49.0601 39.6416 49.5 41.1249 49.5V41.5ZM41.4027 41.5843C41.4849 41.6392 41.549 41.7173 41.5869 41.8087L34.1958 44.8701C34.7635 46.2406 35.7248 47.4119 36.9582 48.236L41.4027 41.5843ZM41.5869 41.8087C41.6247 41.9 41.6346 42.0006 41.6153 42.0975L33.769 40.5368C33.4797 41.9917 33.6282 43.4997 34.1958 44.8701L41.5869 41.8087ZM41.6153 42.0975C41.596 42.1945 41.5484 42.2836 41.4785 42.3535L35.8216 36.6967C34.7727 37.7456 34.0584 39.082 33.769 40.5368L41.6153 42.0975ZM41.4785 42.3535C41.4086 42.4235 41.3195 42.4711 41.2225 42.4904L39.6618 34.6441C38.2069 34.9335 36.8705 35.6478 35.8216 36.6967L41.4785 42.3535ZM41.2225 42.4904C41.1255 42.5097 41.025 42.4998 40.9336 42.4619L43.9951 35.0709C42.6246 34.5032 41.1166 34.3547 39.6618 34.6441L41.2225 42.4904ZM40.9336 42.4619C40.8422 42.4241 40.7641 42.36 40.7092 42.2778L47.361 37.8332C46.5368 36.5998 45.3655 35.6386 43.9951 35.0709L40.9336 42.4619ZM40.7092 42.2778C40.6543 42.1956 40.6249 42.0989 40.6249 42H48.6249C48.6249 40.5166 48.1851 39.0666 47.361 37.8332L40.7092 42.2778ZM40.6249 41.9954C40.6251 41.8641 40.6773 41.7381 40.7702 41.6453L46.4271 47.3021C47.8322 45.897 48.6227 43.9918 48.6249 42.0046L40.6249 41.9954ZM40.7702 41.6453C40.8631 41.5524 40.989 41.5001 41.1204 41.5L41.1295 49.5C43.1167 49.4977 45.0219 48.7073 46.4271 47.3021L40.7702 41.6453Z" fill="white" mask="url(#path-1-inside-1_1_1629)"/>
</svg>
