<svg width="40" height="40" viewBox="0 0 40 40" fill="none" xmlns="http://www.w3.org/2000/svg">
<rect x="0.5" y="0.5" width="39" height="39" rx="7.5" fill="white"/>
<rect x="0.5" y="0.5" width="39" height="39" rx="7.5" stroke="#E5E5E5"/>
<path d="M28.0214 15.2143C27.8678 14.2472 26.9837 13.4022 26.0053 13.2901C22.0125 12.855 17.9842 12.8551 13.9914 13.2905C13.0165 13.4022 12.1324 14.2471 11.9781 15.2178C11.4928 18.3885 11.4929 21.6147 11.9786 24.7854C12.1324 25.7524 13.0165 26.5974 13.9947 26.7094C15.9891 26.9269 17.9938 27.0359 20 27.0357C22.0062 27.0359 24.0109 26.9269 26.0053 26.7094L26.0085 26.709C26.9836 26.5975 27.8677 25.7525 28.0219 24.7817C28.5073 21.611 28.5071 18.3849 28.0214 15.2143ZM22.8467 20.5198L19.0967 23.0198C19.0026 23.0825 18.8932 23.1185 18.7802 23.124C18.6672 23.1295 18.5548 23.1042 18.4551 23.0508C18.3554 22.9974 18.272 22.918 18.2138 22.8209C18.1557 22.7239 18.125 22.6129 18.125 22.4998V17.4998C18.125 17.3866 18.1557 17.2756 18.2138 17.1786C18.272 17.0815 18.3554 17.0021 18.4551 16.9487C18.5548 16.8953 18.6672 16.87 18.7802 16.8755C18.8932 16.881 19.0026 16.917 19.0967 16.9797L22.8467 19.4797C22.9323 19.5368 23.0025 19.6141 23.051 19.7048C23.0996 19.7956 23.125 19.8969 23.125 19.9998C23.125 20.1026 23.0996 20.2039 23.051 20.2947C23.0025 20.3854 22.9323 20.4627 22.8467 20.5198Z" fill="#737373"/>
</svg>
